<?xml version="1.0" encoding="utf-8"?>
<svg xmlns="http://www.w3.org/2000/svg" xmlns:xlink="http://www.w3.org/1999/xlink">
    <symbol fill="currentColor" id="file" class="bi bi-file-bar-graph-fill" viewBox="0 0 16 16" xmlns="http://www.w3.org/2000/svg">
        <path d="M12 0H4a2 2 0 00-2 2v12a2 2 0 002 2h8a2 2 0 002-2V2a2 2 0 00-2-2zm-2 11.5v-6a.5.5 0 01.5-.5h1a.5.5 0 01.5.5v6a.5.5 0 01-.5.5h-1a.5.5 0 01-.5-.5zm-2.5.5a.5.5 0 01-.5-.5v-4a.5.5 0 01.5-.5h1a.5.5 0 01.5.5v4a.5.5 0 01-.5.5h-1zm-3 0a.5.5 0 01-.5-.5v-2a.5.5 0 01.5-.5h1a.5.5 0 01.5.5v2a.5.5 0 01-.5.5h-1z"/>
    </symbol>
    <symbol fill="currentColor" id="folder" class="bi bi-folder-fill" viewBox="0 0 16 16"  xmlns="http://www.w3.org/2000/svg">
        <path d="M9.828 3h3.982a2 2 0 011.992 2.181l-.637 7A2 2 0 0113.174 14H2.826a2 2 0 01-1.991-1.819l-.637-7a1.99 1.99 0 01.342-1.31L.5 3a2 2 0 012-2h3.672a2 2 0 011.414.586l.828.828A2 2 0 009.828 3zm-8.322.12C1.72 3.042 1.95 3 2.19 3h5.396l-.707-.707A1 1 0 006.172 2H2.5a1 1 0 00-1 .981l.006.139z"/>
    </symbol>
</svg>